<?xml version="1.0" encoding="UTF-8" standalone="no"?>
<!-- Generator: Adobe Illustrator 13.0.1, SVG Export Plug-In . SVG Version: 6.00 Build 14948)  -->

<svg
   xmlns:dc="http://purl.org/dc/elements/1.1/"
   xmlns:cc="http://creativecommons.org/ns#"
   xmlns:rdf="http://www.w3.org/1999/02/22-rdf-syntax-ns#"
   xmlns:svg="http://www.w3.org/2000/svg"
   xmlns="http://www.w3.org/2000/svg"
   xmlns:sodipodi="http://sodipodi.sourceforge.net/DTD/sodipodi-0.dtd"
   xmlns:inkscape="http://www.inkscape.org/namespaces/inkscape"
   version="1.1"
   x="0px"
   y="0px"
   width="614.992px"
   height="123.766px"
   viewBox="0 0 614.992 123.766"
   enable-background="new 0 0 614.992 123.766"
   xml:space="preserve"
   id="svg2"
   inkscape:version="0.91 r13725"
   sodipodi:docname="PDFlib-blue-logo-white-background.svg"><metadata
     id="metadata37"><rdf:RDF><cc:Work
         rdf:about=""><dc:format>image/svg+xml</dc:format><dc:type
           rdf:resource="http://purl.org/dc/dcmitype/StillImage" /><dc:title></dc:title></cc:Work></rdf:RDF></metadata><defs
     id="defs35" /><sodipodi:namedview
     pagecolor="#ffffff"
     bordercolor="#666666"
     borderopacity="1"
     objecttolerance="10"
     gridtolerance="10"
     guidetolerance="10"
     inkscape:pageopacity="0"
     inkscape:pageshadow="2"
     inkscape:window-width="1920"
     inkscape:window-height="1178"
     id="namedview33"
     showgrid="false"
     inkscape:zoom="2.070865"
     inkscape:cx="309.45953"
     inkscape:cy="-25.916839"
     inkscape:window-x="1592"
     inkscape:window-y="-8"
     inkscape:window-maximized="1"
     inkscape:current-layer="svg2" /><rect
     style="fill:#ffffff"
     id="rect3365"
     width="616.45288"
     height="124.01582"
     x="0.72523868"
     y="0.47542444" /><g
     id="Background" /><g
     id="Guides" /><g
     id="g7"><path
       style="stroke:#0000ff;fill:#0000ff;stroke-opacity:1"
       inkscape:connector-curvature="0"
       id="path9"
       d="M 27.718,37.517 C 24.274,35.015 23.385,30.791 24.603,27.138 20.196,28.674 12.102,28.726 7.619,25.47 3.802,22.696 -6.521,11.57 8.059,6.947 37.917,-2.314 55.62,-0.151 84.741,4.454 c 13.898,2.249 37.169,7.608 42.146,11.224 l 9.303,5.043 c 9.041,14.021 37.736,51.158 36.14,64.418 -4.749,2.916 -3.891,6.306 -10.375,5.678 C 156.066,86.539 145.07,74.963 141.206,72.156 129.074,63.342 112.48,85.557 97.845,74.924 94.011,72.139 89.24,66.637 92.84,61.682 c 1.292,-1.779 8.806,-4.631 10.12,-5.92 -9.815,4.185 -19.574,4.003 -27.074,2.195 0,0 -3.762,-1.922 -3.642,-3.583 -1.024,-2.917 8.02,-8.729 8.02,-8.729 -11.045,4.21 -19.277,6.978 -31.591,3.08 -1.68,-2.742 1.263,-6.907 3.351,-9.779 1.039,-1.43 -14.628,5.603 -24.306,-1.429 z" /><path
       style="fill:#ffffff;stroke:#0000ff;stroke-opacity:0"
       inkscape:connector-curvature="0"
       id="path11"
       d="M 54.508,3.531 C 42.564,2.07 23.969,5.699 9.708,10.122 c -9.694,3.074 -0.461,11.852 2.494,12.733 7.879,2.35 35.057,-5.03 40.537,-6.24 0,0 5.068,-0.116 1.273,3.98 -1.651,0.702 -23.492,4.732 -24.595,6.251 -1.813,2.496 -1.401,5.701 0.767,7.276 8.323,6.047 34.694,-2.872 47.509,-4.673 l 3.216,1.547 c -1.554,1.76 -21.369,7.013 -23.262,8.367 -0.918,0.656 -1.608,1.195 -2.229,2.05 -0.99,1.362 -1.387,2.831 -1.738,4.435 12.171,3.038 35.055,-4.99 43.614,-9.57 4.56,-0.354 4.169,2.984 4.169,2.984 -7.408,1.33 -15.654,6.384 -20.019,9.586 -2.364,1.734 -3.852,2.891 -3.417,5.334 l -0.035,-0.039 c 12.185,2.737 29.591,-1.724 40.447,-5.777 1.578,-0.527 4.821,1.59 2.05,5.075 -6.247,4.181 -19.685,4.416 -24.256,10.707 -1.81,2.491 2.41,6.17 4.077,7.381 12.169,8.841 28.583,-12.894 43.242,-2.243 5.898,4.284 15.271,15.592 19.706,17.879 3.007,0.997 3.033,-3.905 5.218,-4.112 2.147,-5.234 -6.767,-13.571 -10.958,-23.099 C 154.845,52.829 135.39,24.671 131.705,22.051 126.415,18.288 97.058,9.239 83.279,7.01 68.093,4.608 66.665,5.018 54.508,3.531 Z" /><g
       id="g13"
       style="fill:#0000ff"><path
         style="clip-rule:evenodd;fill-rule:evenodd;fill:#0000ff"
         inkscape:connector-curvature="0"
         id="path15"
         d="m 238.458,42.761 c 0,-26.02 -17.289,-39.467 -48.722,-39.467 -12.922,0 -24.797,0.349 -35.625,0.873 l 0,117.877 32.481,0 0,-36.324 c 2.27,0.175 4.191,0.175 4.889,0.175 31.609,0 46.977,-20.258 46.977,-43.134 z m -33.53,1.048 c 0,9.779 -7.509,15.019 -15.892,15.019 -0.523,0 -1.222,0 -2.444,-0.175 l 0,-28.815 c 1.397,-0.174 2.619,-0.174 3.143,-0.174 11.177,0 15.193,6.461 15.193,14.145 z" /><path
         style="clip-rule:evenodd;fill-rule:evenodd;fill:#0000ff"
         inkscape:connector-curvature="0"
         id="path17"
         d="m 349.674,60.224 c 0,-42.61 -24.099,-56.755 -58.501,-56.755 -17.114,0 -33.18,0.524 -42.436,1.048 l 0,117.353 c 11.875,0.698 24.623,1.047 37.371,1.047 38.245,0 63.566,-22.353 63.566,-62.693 z m -35.101,2.62 c 0,22.003 -11.351,31.957 -25.845,31.957 -3.842,0 -6.112,-0.175 -7.509,-0.523 l 0,-63.043 c 2.445,-0.35 4.366,-0.35 8.208,-0.35 21.654,10e-4 25.146,13.622 25.146,31.959 z" /><polygon
         style="clip-rule:evenodd;fill-rule:evenodd;fill:#0000ff"
         id="polygon19"
         points="362.399,4.167 362.399,122.044 394.881,122.044 394.881,77.862 427.711,77.862 427.711,51.143 394.881,51.143 394.881,32.108 429.632,32.108 429.632,4.167 " /><rect
         style="clip-rule:evenodd;fill-rule:evenodd;fill:#0000ff"
         id="rect21"
         height="117.877"
         width="15.717"
         y="4.1669998"
         x="449.16101" /><path
         style="clip-rule:evenodd;fill-rule:evenodd;fill:#0000ff"
         inkscape:connector-curvature="0"
         id="path23"
         d="m 512.867,10.628 c 0,-5.763 -4.715,-10.128 -10.478,-10.128 -5.763,0 -10.478,4.541 -10.478,10.128 0,5.763 4.715,10.303 10.478,10.303 5.763,0 10.478,-4.714 10.478,-10.303 z m -2.62,111.416 0,-86.793 -15.717,0 0,86.793 15.717,0 z" /><path
         style="clip-rule:evenodd;fill-rule:evenodd;fill:#0000ff"
         inkscape:connector-curvature="0"
         id="path25"
         d="M 614.992,74.544 C 614.992,48 603.466,33.68 583.034,33.68 c -13.098,0 -23.925,7.16 -28.64,19.384 l -0.35,-0.174 c 1.048,-4.366 1.572,-11.177 1.572,-16.241 l 0,-32.482 -15.717,0 0,115.607 c 9.255,2.444 17.813,3.492 29.862,3.492 27.942,0 45.231,-18.336 45.231,-48.722 z m -16.416,1.397 c 0,24.972 -11.002,34.927 -27.592,34.927 -6.111,0 -10.827,-0.698 -15.367,-2.096 l 0,-28.814 c 0,-15.019 8.033,-33.355 23.75,-33.355 13.096,0 19.209,10.652 19.209,29.338 z" /></g><path
       style="stroke:#0000ff;stroke-opacity:1;fill:#0000ff"
       inkscape:connector-curvature="0"
       id="path27"
       d="m 40.089,122.024 c -4.254,0.148 -7.556,-2.633 -8.844,-6.262 -2.527,3.924 -5.499,7.301 -11.036,7.494 C 15.494,123.42 -1.639,121.697 7.004,109.077 24.831,83.398 38.885,75.162 64.669,60.863 77.004,54.078 98.642,43.975 104.79,43.76 l 8.896,-2.865 c 15.447,4.189 55.121,27.481 63.836,46.133 -1.947,5.222 -4.898,5.695 -10.394,9.192 -7.275,0.254 -13.639,-13.156 -18.414,-12.989 -14.986,0.522 -12.255,24.464 -30.334,25.096 -4.736,0.165 -11.883,-1.233 -12.097,-7.354 -0.077,-2.197 4.088,-9.069 4.329,-10.895 -5.157,9.341 -12.959,15.205 -19.983,18.397 0,0 -4.147,0.801 -5.076,-0.581 -0.939,-2.229 -0.344,-9.847 -0.344,-9.847 -6.112,10.117 -9.604,15.397 -21.708,19.907 -3.012,-1.127 -3.256,-6.221 -3.38,-9.769 -0.061,-1.766 -8.077,13.421 -20.032,13.839 z" /><path
       style="fill:#ffffff;stroke:#0000ff;stroke-opacity:1"
       inkscape:connector-curvature="0"
       id="path29"
       d="M 40.276,78.749 C 29.963,84.951 20.324,97.284 11.81,109.55 c -5.747,8.391 5.17,9.621 8.252,9.513 6.393,-0.223 23.302,-24.587 26.875,-28.914 0,0 3.922,-3.212 3.453,2.352 -0.869,1.57 -15.598,18.192 -15.533,20.069 0.108,3.082 2.406,5.354 5.084,5.261 10.282,-0.358 25.572,-23.622 34.561,-32.932 l 3.486,-0.761 c -0.141,2.344 -12.521,18.683 -13.18,20.915 -0.319,1.083 -0.531,1.933 -0.495,2.987 0.059,1.684 0.649,3.085 1.361,4.564 11.461,-5.099 23.668,-24.816 30.723,-34.183 3.375,-3.086 5.123,-0.215 5.123,-0.215 -1.002,3.396 -12.247,16.026 -12.119,19.669 l 0.218,6.262 0.322,0.037 c 11.288,-5.346 22.257,-19.577 28.317,-29.454 0.919,-1.388 4.778,-1.716 4.74,2.736 -2.35,7.142 -12.794,15.6 -12.522,23.371 0.107,3.077 5.698,3.378 7.757,3.306 15.032,-0.524 12.226,-24.463 30.334,-25.096 7.285,-0.255 13.808,14.837 18.314,13.229 2.984,-1.066 4.754,-3.361 6.349,-4.869 C 171.7,81.95 158.591,72.942 151.412,64.914 146.701,59.583 114.115,44.075 114.115,44.075 110.098,44.215 77.32,57.051 65.089,63.779 51.644,71.234 50.772,72.436 40.276,78.749 Z" /><path
       style="clip-rule:evenodd;fill-rule:evenodd;fill:#0000ff"
       inkscape:connector-curvature="0"
       id="path31"
       d="m 604.881,16.151 -2.202,-3.494 c -0.383,-0.622 -0.766,-1.196 -1.005,-1.483 1.675,-0.24 2.728,-1.34 2.728,-3.207 0,-1.675 -1.053,-2.824 -3.686,-2.824 l -3.541,0 0,11.009 2.105,0 0,-4.739 0.145,0 2.822,4.739 2.634,0 z m -2.68,-7.897 c 0,0.862 -0.575,1.771 -2.201,1.771 l -0.719,0 0,-3.207 1.101,0 c 1.339,0 1.819,0.431 1.819,1.436 z m -1.627,-5.409 c 4.26,0 7.705,3.686 7.705,7.945 0,4.308 -3.445,7.802 -7.705,7.802 -4.309,0 -7.754,-3.686 -7.754,-7.945 0,-4.307 3.445,-7.802 7.754,-7.802 z m 0,-2.345 c -5.695,0 -10.291,4.547 -10.291,10.195 0,5.792 4.451,10.243 10.291,10.243 5.552,0 10.242,-4.643 10.242,-10.243 0,-5.744 -4.499,-10.195 -10.242,-10.195 z" /></g></svg>